<?xml version="1.0" encoding="utf-8"?>
<!-- Generator: Adobe Illustrator 18.1.0, SVG Export Plug-In . SVG Version: 6.00 Build 0)  -->
<svg version="1.1" id="Layer_1" xmlns="http://www.w3.org/2000/svg" xmlns:xlink="http://www.w3.org/1999/xlink" x="0px" y="0px"
	 viewBox="0 370.3 595.3 101" enable-background="new 0 370.3 595.3 101" xml:space="preserve">
<symbol  id="Logo_Blue" viewBox="-221 -37.2 442 74.5">
	<g id="CM_Logo_3_">
		<path fill="#FFFFFF" d="M-191.1,37.2c-16.3,0-29.6-13.2-29.6-29.6c0-4.5,2.2-10,5.3-15.4l9.6,9.6c0.4,0.4,0.7,1.2,0.7,1.8
			c0,0-0.7,11.2,3.7,15.7c4.8,4.8,16.6,3.6,16.6,3.6c0.6-0.1,0.7-0.4,0.3-0.8L-194.6,12c-0.4-0.4-0.7-1.2-0.6-1.8l0.9-5.4
			c0.1-0.6,0.6-1.1,1.2-1.2l5.4-0.7c0.6-0.1,1.4,0.2,1.8,0.6l9.9,9.9c0.4,0.4,0.8,0.3,0.8-0.3c0,0,1.1-11.7-3.6-16.5
			c-4.4-4.4-15.5-3.7-15.5-3.7c-0.6,0-1.4-0.3-1.8-0.7l-11.6-11.6c7.3-9.6,14.9-17.2,14.9-17.2c0.9-0.9,2.4-0.9,3.3,0
			c0,0,27.9,27.8,27.9,44.2C-161.5,24-174.8,37.2-191.1,37.2z"/>
		<g>
			<path fill="#FFFFFF" d="M-143-1c0,11.5,8.7,19.2,20.1,19.2c9,0,13.8-5.1,16.2-9.9l-8.3-4c-1.2,3-4.4,5.4-8,5.4
				c-6.1,0-10.4-4.6-10.4-10.8c0-6.1,4.3-10.8,10.4-10.8c3.6,0,6.7,2.5,8,5.4l8.3-3.9c-2.4-4.7-7.3-10-16.2-10
				C-134.3-20.3-143-12.5-143-1z"/>
			<path fill="#FFFFFF" d="M-103-20v38h8v-38H-103z"/>
			<path fill="#FFFFFF" d="M-88.5,14.7c0,2.7,2.2,4.9,4.9,4.9s5-2.2,5-4.9s-2.2-5-5-5S-88.5,12-88.5,14.7z M-88-20V8h8v-28H-88z"/>
			<path fill="#FFFFFF" d="M-74.8-6.1C-74.8,2.3-68.6,8-60.1,8c5.9,0,9.4-2.6,11-5l-5.6-5.2c-1.1,1.6-2.8,2.6-5.1,2.6
				c-3.6,0-6.3-2.5-6.3-6.5c0-4.1,2.7-6.6,6.3-6.6c2.3,0,4,1.1,5.1,2.6l5.6-5.2c-1.6-2.3-5.2-5-11-5C-68.6-20.3-74.8-14.5-74.8-6.1z
				"/>
			<path fill="#FFFFFF" d="M-28.1-20l-6.1,9.7l-2.8-2.9V-20h-8v38h8V-3.4L-28.4,8H-18L-28-4.8L-17.5-20H-28.1z"/>
			<path fill="#FFFFFF" d="M18-20V9.1L6.8-20H4.1L-8,9.1V-20h-6v38h9.3L5.5-7.5l10,25.5H25v-38H18z"/>
			<path fill="#FFFFFF" d="M30.9-6.1C30.9,1.7,36.2,8,44.2,8C52.3,8,57,1.9,57-6.6V-8H37c0.4-4,3.5-7.5,8.5-7.5c2.7,0,5.7,1,7.7,3
				l2.7-3.9c-2.7-2.6-6.7-4-10.9-4C36.9-20.3,30.9-14.7,30.9-6.1z M44.5,4.1c-5,0-7.3-5.1-7.5-7.1h15.2C52-1,49.8,4.1,44.5,4.1z"/>
			<path fill="#FFFFFF" d="M62-6.1C62,2,67.7,8,75.8,8c5.3,0,8.4-2.2,10.3-4.8l-3.8-3.5c-1.5,2.1-3.6,3.1-6.2,3.1
				c-4.9,0-8.1-3.7-8.1-8.9s3.3-9,8.1-9c2.6,0,4.7,1.1,6.2,3.2l3.8-3.6c-1.9-2.5-5-4.8-10.3-4.8C67.7-20.3,62-14.3,62-6.1z"/>
			<path fill="#FFFFFF" d="M110-20v17.3c0,4.2-2.5,5.5-5.7,5.5c-3,0-6.3-1.8-7.3-3.6V-20h-6v38h6V3.7c1,2.1,5.2,4.3,9.4,4.3
				c5.8,0,8.6-3,8.6-8.5V-20H110z"/>
			<path fill="#FFFFFF" d="M140-20v3.3c-3-2.3-5.4-3.6-9-3.6c-4.4,0-9.4,3-9.4,8.9c0,6.2,5.1,8.8,9.5,8.8c3.7,0,5.9-1.2,8.9-3.5v4
				c0,3.1-2.9,5-6.5,5c-3,0-5.8-1.1-8.1-3.5l-2.5,4.1C126,6.7,129.7,8,134,8c6,0,11-2.5,11-9.7V-20H140z M140-13.5v4.1
				c-3,1.8-4.1,2.8-6.6,2.8c-3.3,0-5.9-2-5.9-4.9c0-3,2.7-4.9,6-4.9C135.9-16.3,137-15.3,140-13.5z"/>
			<path fill="#FFFFFF" d="M171-20v17.2c0,4.2-2,5.6-5.3,5.6c-3,0-5.7-1.8-6.7-3.6V-20h-6V8h6V3.7c1,2.1,5.2,4.3,9.4,4.3
				c5.8,0,8.6-3.1,8.6-8.6V-20H171z"/>
			<path fill="#FFFFFF" d="M184,14.2c0,2,1.6,3.6,3.6,3.6s3.6-1.6,3.6-3.6s-1.6-3.6-3.6-3.6C185.6,10.6,184,12.2,184,14.2z M184-20
				V8h6v-28H184z"/>
			<path fill="#FFFFFF" d="M196.5-6.1C196.5,2,202.2,8,210.4,8c5.3,0,8.4-2.2,10.3-4.8l-3.8-3.5c-1.5,2.1-3.6,3.1-6.2,3.1
				c-4.9,0-8.1-3.7-8.1-8.9s3.3-9,8.1-9c2.6,0,4.7,1.1,6.2,3.2l3.8-3.6c-1.9-2.5-5-4.8-10.3-4.8C202.2-20.3,196.5-14.3,196.5-6.1z"
				/>
		</g>
	</g>
	<polygon display="none" fill="none" points="-221,37 221,37 221,-37 -221,-37 	"/>
</symbol>
<use xlink:href="#Logo_Blue"  width="442" height="74.5" id="XMLID_1_" x="-221" y="-37.2" transform="matrix(1.3468 0 0 -1.3566 297.6417 420.8628)" overflow="visible"/>
</svg>
