<?xml version="1.0" encoding="UTF-8"?>
<svg width="60px" height="57px" viewBox="0 0 60 57" version="1.1" xmlns="http://www.w3.org/2000/svg">
    <!-- Generator: Sketch 51.2 (57519) - http://www.bohemiancoding.com/sketch -->
    <title>Group 31</title>
    <desc>Created with Sketch.</desc>
    <defs></defs>
    <g id="Hero-Tests" stroke="none" stroke-width="1" fill="none" fill-rule="evenodd">
        <g id="CM-hero-1-Desktop-HD---A" transform="translate(-690.000000, -636.000000)">
            <g id="quick-hitting-facts" transform="translate(0.000000, 603.000000)">
                <g id="Group-31" transform="translate(690.000000, 33.000000)">
                    <g>
                        <polygon id="Fill-1" fill="#344154" points="49.8816541 56.2756063 51.2350376 56.2756063 51.2350376 31.3324961 49.8816541 31.3324961"></polygon>
                        <polygon id="Fill-2" fill="#344154" points="19.8446617 56.2756063 21.1980451 56.2756063 21.1980451 31.3324961 19.8446617 31.3324961"></polygon>
                        <g id="Group-30" transform="translate(0.000000, 0.397654)">
                            <path d="M37.009218,41.3057906 L34.0710226,41.3057906 C29.5349323,41.3057906 25.8438045,37.6340031 25.8438045,33.1211291 L25.8438045,26.9512157 L27.197188,26.9512157 L27.197188,33.1211291 C27.197188,36.8916567 30.2806466,39.9593339 34.0710226,39.9593339 L37.009218,39.9593339 C40.799594,39.9593339 43.8830526,36.8916567 43.8830526,33.1211291 L43.8830526,26.9512157 L45.2364361,26.9512157 L45.2364361,33.1211291 C45.2364361,37.6340031 41.5457594,41.3057906 37.009218,41.3057906" id="Fill-3" fill="#344154"></path>
                            <path d="M35.570797,25.8850913 C29.9506466,25.8850913 25.2029774,20.2744063 25.2029774,13.6332331 L25.2029774,12.0987213 L26.5563609,12.0987213 L26.5563609,13.6332331 C26.5563609,19.5446268 30.6841805,24.5386346 35.570797,24.5386346 C40.4569624,24.5386346 44.584782,19.5482173 44.584782,13.6413118 L44.584782,12.1386661 L45.9381654,12.1386661 L45.9381654,13.6413118 C45.9381654,20.3924457 41.2874887,25.8850913 35.570797,25.8850913" id="Fill-5" fill="#344154"></path>
                            <path d="M59.322406,56.5511811 C58.9488722,56.5511811 58.6457143,56.2495748 58.6457143,55.8779528 C58.6457143,55.2509528 58.2419549,49.0787953 57.5390977,38.9444646 C57.4028571,36.983126 56.3242105,35.1856063 54.6541353,34.1353701 L44.5881203,27.8038819 C42.1136842,30.1126063 39.0081203,31.3293543 35.5709774,31.3293543 C32.1302256,31.3293543 29.0237594,30.1126063 26.5524812,27.8043307 L16.4869173,34.1353701 C14.8172932,35.1856063 13.7386466,36.983126 13.602406,38.9440157 C12.8995489,49.0792441 12.4957895,55.2514016 12.4957895,55.8779528 C12.4957895,56.2495748 12.1926316,56.5511811 11.8190977,56.5511811 C11.4455639,56.5511811 11.142406,56.2495748 11.142406,55.8779528 C11.142406,55.024748 11.746015,46.1475591 12.2526316,38.8506614 C12.4181955,36.4642913 13.7305263,34.2758504 15.7633083,32.9976142 L26.7419549,26.0920866 L27.1249624,26.4785197 C29.3954887,28.7710866 32.3160902,29.9828976 35.5709774,29.9828976 C38.8218045,29.9828976 41.7419549,28.7710866 44.0165414,26.4780709 L44.3990977,26.0925354 L55.3777444,32.9976142 C57.4105263,34.2758504 58.7233083,36.4642913 58.8888722,38.8511102 C59.3954887,46.1471102 59.9990977,55.0238504 59.9990977,55.8779528 C59.9990977,56.2495748 59.6959398,56.5511811 59.322406,56.5511811" id="Fill-7" fill="#344154"></path>
                            <path d="M25.8839098,11.4961819 L25.8884211,11.4961819 L25.8839098,11.4961819 Z M26.5592481,11.5361268 C26.5578947,11.5630559 26.4730827,13.3331976 27.4786466,14.6123315 C28.3218045,15.6845598 29.8159398,16.0507961 31.1115789,15.5027882 C32.262406,15.0158197 33.9694737,14.4359457 35.5687218,14.435048 L35.5732331,14.435048 C37.1715789,14.4359457 38.8790977,15.0158197 40.0299248,15.5023394 C41.3251128,16.0503472 42.8196992,15.6850087 43.6628571,14.6118827 C44.6607519,13.3430717 44.5845113,12.0141189 44.583609,12.0011031 L44.5818045,11.9508354 L44.5849624,10.5074339 C44.5849624,7.99180394 43.6204511,5.61171732 41.9395489,3.97756772 C40.2279699,2.31379606 37.9669173,1.39775669 35.5732331,1.39775669 C33.1790977,1.39775669 30.917594,2.31379606 29.2051128,3.97756772 C27.5246617,5.6112685 26.5606015,7.99180394 26.5606015,10.5087803 L26.5592481,11.5361268 Z M29.8732331,17.1010323 C28.5442105,17.1010323 27.2566917,16.5148748 26.4126316,15.4421976 C25.1404511,13.8237567 25.1950376,11.7403394 25.207218,11.478678 L25.207218,10.5087803 C25.207218,7.63185118 26.3196992,4.89989055 28.26,3.01440236 C30.2264662,1.10378031 32.823609,0.0513 35.5732331,0.0513 C38.322406,0.0513 40.9190977,1.10378031 42.8851128,3.01440236 C44.8254135,4.90033937 45.9383459,7.63185118 45.9383459,10.5087803 L45.935188,11.9333315 C45.9491729,12.1981346 45.9789474,13.8520323 44.7288722,15.4417488 C43.5081203,16.9937646 41.3584962,17.5278591 39.5007519,16.7415283 C38.4649624,16.3039299 36.942406,15.7819535 35.5709774,15.7815047 C34.1986466,15.7819535 32.6765414,16.3039299 31.641203,16.7419772 C31.0673684,16.9843394 30.466015,17.1010323 29.8732331,17.1010323 Z" id="Fill-9" fill="#344154"></path>
                            <path d="M35.5725564,6.6704811 C37.967594,6.6704811 40.2290977,7.58696929 41.9411278,9.25118976 C42.1468421,9.45136299 42.3417293,9.66320551 42.5257895,9.88357559 C42.3872932,8.14799291 41.6767669,6.54615827 40.5209774,5.42321339 C39.1910526,4.12971732 37.4334586,3.41789055 35.5730075,3.41789055 C33.7121053,3.41789055 31.9545113,4.13016614 30.6236842,5.42321339 C29.4692481,6.54436299 28.7587218,8.14485118 28.6202256,9.88222913 C28.8038346,9.66230787 28.9978195,9.45091417 29.2035338,9.25118976 C30.9164662,7.58696929 33.1779699,6.6704811 35.5725564,6.6704811" id="Fill-11" fill="#009DFF"></path>
                            <path d="M23.2282556,55.8779528 L23.2282556,50.1541654 C31.2299098,52.7407087 39.8500602,52.7407087 47.8517143,50.1541654 L47.8517143,55.8779528 L23.2282556,55.8779528 Z" id="Fill-13" fill="#009DFF"></path>
                            <path d="M26.7742556,47.9232661 C26.7354586,47.9232661 26.6966617,47.9201244 26.6569624,47.9133921 C24.5159098,47.5417701 22.3811729,47.0153055 20.3127519,46.3465654 C19.9572632,46.2316677 19.7623759,45.8519669 19.8778647,45.4987465 C19.9933534,45.1446283 20.3754586,44.952085 20.7304962,45.066085 C22.7389173,45.7146283 24.8104962,46.2267307 26.8897444,46.5866835 C27.2574135,46.6504157 27.5041805,46.999148 27.4401203,47.3658331 C27.3828271,47.6925732 27.096812,47.9232661 26.7742556,47.9232661" id="Fill-15" fill="#344154"></path>
                            <path d="M26.7742556,44.4023717 C26.7354586,44.4023717 26.6966617,44.3992299 26.6574135,44.3924976 C24.5159098,44.0213244 22.3811729,43.4948598 20.3123008,42.8256709 C19.9572632,42.7107732 19.7623759,42.3310724 19.8778647,41.9774031 C19.9933534,41.6241827 20.3745564,41.4302929 20.7309474,41.5451906 C22.7389173,42.1941827 24.8104962,42.706285 26.8892932,43.065789 C27.2574135,43.1295213 27.5041805,43.4782535 27.4401203,43.8444898 C27.3828271,44.1716787 27.0972632,44.4023717 26.7742556,44.4023717" id="Fill-17" fill="#344154"></path>
                            <path d="M42.5535789,47.9232661 C42.2305714,47.9232661 41.9450075,47.6925732 41.8877143,47.3658331 C41.8236541,46.999148 42.0704211,46.6504157 42.4380902,46.5866835 C44.5177895,46.2267307 46.5893684,45.7146283 48.5968872,45.066085 C48.9537293,44.9511874 49.3340301,45.1446283 49.4495188,45.4982976 C49.5650075,45.8519669 49.3701203,46.2316677 49.0150827,46.3465654 C46.9466617,47.0153055 44.8123759,47.5417701 42.6708722,47.9133921 C42.6311729,47.9201244 42.5923759,47.9232661 42.5535789,47.9232661" id="Fill-19" fill="#344154"></path>
                            <path d="M42.5535789,44.4023717 C42.2305714,44.4023717 41.9450075,44.1716787 41.8877143,43.8444898 C41.8236541,43.4782535 42.0704211,43.1295213 42.4385414,43.065789 C44.5177895,42.706285 46.5893684,42.1941827 48.5968872,41.5451906 C48.9537293,41.4298441 49.3340301,41.6241827 49.4495188,41.9774031 C49.5650075,42.3310724 49.3705714,42.7107732 49.0150827,42.8256709 C46.9466617,43.4948598 44.8123759,44.0213244 42.6704211,44.3924976 C42.6311729,44.3992299 42.5923759,44.4023717 42.5535789,44.4023717" id="Fill-21" fill="#344154"></path>
                            <path d="M11.819188,15.809915 L22.961594,18.374915 C22.961594,40.2849071 11.819188,40.6327417 11.819188,40.6327417 L11.819188,31.8893008 L11.819188,15.809915" id="Fill-23" fill="#009DFF"></path>
                            <g id="Group-27" transform="translate(0.000000, 14.811024)" fill="#344154">
                                <path d="M1.35559398,4.09852441 C1.44762406,14.7359811 4.27303759,19.8947055 6.64957895,22.3542331 C9.08386466,24.8730047 11.5492782,25.1270362 11.8195038,25.1467843 C12.3486767,25.1054929 22.1110827,24.0287764 22.2829624,4.09852441 L11.8190526,1.6901622 L1.35559398,4.09852441 Z M11.8402556,26.4941386 C11.3160451,26.4793276 -4.5112782e-05,25.8698315 -4.5112782e-05,3.5639811 L-4.5112782e-05,3.02854016 L11.8190526,0.3078 L11.9715338,0.343256693 L23.6386015,3.02854016 L23.6386015,3.5639811 C23.6386015,25.8698315 12.3225113,26.4793276 11.8402556,26.4941386 Z" id="Fill-25"></path>
                            </g>
                            <path d="M19.2826466,16.2236811 C19.2325714,16.2236811 19.1806917,16.2178465 19.1297143,16.2061772 L11.819188,14.5235551 L4.50821053,16.2061772 C4.14369925,16.2910039 3.78099248,16.0643504 3.69663158,15.7021535 C3.61227068,15.3399567 3.83918797,14.9786575 4.20324812,14.8947283 L11.819188,13.1411929 L19.4346767,14.8947283 C19.799188,14.9786575 20.0256541,15.3399567 19.9412932,15.7021535 C19.8691128,16.013185 19.5907669,16.2236811 19.2826466,16.2236811" id="Fill-28" fill="#344154"></path>
                        </g>
                    </g>
                </g>
            </g>
        </g>
    </g>
</svg>