<?xml version="1.0" encoding="utf-8"?>
<!-- Generator: Adobe Illustrator 18.1.0, SVG Export Plug-In . SVG Version: 6.00 Build 0)  -->
<svg version="1.1" id="Layer_1" xmlns="http://www.w3.org/2000/svg" xmlns:xlink="http://www.w3.org/1999/xlink" x="0px" y="0px"
	 viewBox="52 371.9 700 99" enable-background="new 52 371.9 700 99" xml:space="preserve">
<g>
	<path fill="#0A9600" d="M315,409.7v43.7h-16v-43.7h-16.1v-13.9h48.2v13.9H315z"/>
	<path fill="#0A9600" d="M368.4,436h-25.3c0.5,4.8,3.3,6.9,7.3,6.9c3.8,0,6.9-0.8,11.2-3l5.7,9.5c-5.3,3.1-10.9,4.9-17.6,4.9
		c-13,0-20.2-9.2-20.2-22.5c0-14.9,8.4-22.5,19.8-22.5c11.9,0,19.3,7.8,19.3,23.9C368.5,434.4,368.5,435.3,368.4,436z M348.8,420.2
		c-3.4,0-5.3,2.3-5.8,6.6h12.3C354.7,422.5,353.2,420.2,348.8,420.2z"/>
	<path fill="#0A9600" d="M396,454.3c-12.7,0-20.2-8.1-20.2-22.6c0-13.3,6.7-22.4,20.6-22.4c8.1,0,12.8,3.8,16.6,9.9l-10.3,7.7
		c-2.1-3.8-3.5-5.6-6.7-5.6c-3.8,0-5.7,3.8-5.7,10.6c0,6.8,2.1,10.4,6.1,10.4c2.8,0,4.8-1.6,7.5-5.6l9.4,7.3
		C408.3,451.4,403.6,454.3,396,454.3z"/>
	<path fill="#0A9600" d="M446.5,453.4v-24.5c0-5.6-1.9-7.1-4.9-7.1c-3.1,0-5,1.5-5,6.9v24.7h-14.8v-54.1l14.8-5.9v19.7
		c2.7-2.1,5.8-3.8,10.9-3.8c9.5,0,14,6.3,14,17.7v26.4H446.5z"/>
	<polygon fill="#0A9600" points="52,371.9 52,404.9 85,404.9 85,470.9 118,470.9 118,404.9 151,404.9 151,371.9 	"/>
	<polygon fill="#0A9600" points="184,437.9 184,404.9 151,404.9 151,470.9 250,470.9 250,437.9 	"/>
	<rect x="184" y="371.9" fill="#0A9600" width="66" height="33"/>
</g>
<path d="M496.9,454.3c-17.1,0-26.3-12.7-26.3-29.7c0-18.5,10.9-29.7,26.3-29.7c14.2,0,19.8,6.1,23.7,17l-14.5,5.7
	c-2.1-5.3-4-8.7-9.3-8.7c-6.7,0-9.5,6.7-9.5,15.8c0,8.8,2.8,15.8,9.7,15.8c5,0,7.2-2.7,10.3-8.1l13.5,7.2
	C516.9,447,510.5,454.3,496.9,454.3z"/>
<path d="M557.2,426.5c-1.9-2.1-4-3.6-6.9-3.6c-3.6,0-5.8,1.7-5.8,7v23.5h-14.8v-43.2h14.8v3.1c2.6-2.5,5.4-4,9.2-4
	c3.1,0,5.3,0.7,7,1.8L557.2,426.5z"/>
<path d="M592.5,453.4v-2.9c-2.6,2.1-5.8,3.8-10.8,3.8c-9.5,0-14-6.3-14-17.7v-26.4h14.9v24.5c0,5.6,1.9,7.1,4.9,7.1s4.9-1.5,4.9-6.9
	v-24.7h14.9v43.2H592.5z"/>
<path d="M642.8,453.4v-24.5c0-5.6-1.9-7.1-4.9-7.1c-3.1,0-5,1.5-5,6.9v24.7H618v-43.2h14.8v2.9c2.7-2.1,5.8-3.8,10.9-3.8
	c9.5,0,14,6.3,14,17.7v26.4H642.8z"/>
<path d="M686.6,454.3c-12.7,0-20.2-8.1-20.2-22.6c0-13.3,6.7-22.4,20.6-22.4c8.1,0,12.8,3.8,16.6,9.9l-10.3,7.7
	c-2.1-3.8-3.5-5.6-6.7-5.6c-3.8,0-5.7,3.8-5.7,10.6c0,6.8,2.1,10.4,6.1,10.4c2.8,0,4.8-1.6,7.5-5.6l9.4,7.3
	C698.9,451.4,694.2,454.3,686.6,454.3z"/>
<path d="M737.1,453.4v-24.5c0-5.6-1.9-7.1-4.9-7.1c-3.1,0-5,1.5-5,6.9v24.7h-14.8v-54.1l14.8-5.9v19.7c2.7-2.1,5.8-3.8,10.9-3.8
	c9.5,0,14,6.3,14,17.7v26.4H737.1z"/>
</svg>
